<?xml version="1.0" encoding="UTF-8"?>
<svg version="1.1" xmlns="http://www.w3.org/2000/svg" width="1024" height="459">
<path d="M0 0 C337.92 0 675.84 0 1024 0 C1024 151.47 1024 302.94 1024 459 C686.08 459 348.16 459 0 459 C0 307.53 0 156.06 0 0 Z " fill="#FBFCFC" transform="translate(0,0)"/>
<path d="M0 0 C3.96 0 7.92 0 12 0 C13.62473999 4.65652306 14.90967128 9.36101858 16.09375 14.14453125 C16.38203674 15.29836555 16.38203674 15.29836555 16.67614746 16.47550964 C17.08062601 18.09643175 17.48396704 19.71763808 17.88623047 21.33911133 C18.4956851 23.79511169 19.1088648 26.25015842 19.72265625 28.70507812 C20.11740872 30.28900738 20.51194686 31.87299008 20.90625 33.45703125 C21.08651733 34.17921341 21.26678467 34.90139557 21.45251465 35.64546204 C22.56264062 40.126768 23.58502979 44.61887768 24.53845215 49.13627625 C24.9464766 51.07552976 24.9464766 51.07552976 26 53 C26.22856689 52.05890381 26.45713379 51.11780762 26.69262695 50.14819336 C29.0980481 40.33645569 31.73335189 30.60446856 34.51928711 20.89428711 C35.20155498 18.51345391 35.87730244 16.13082737 36.55273438 13.74804688 C36.98659596 12.22905716 37.42082593 10.71017261 37.85546875 9.19140625 C38.05649704 8.48117813 38.25752533 7.77095001 38.46464539 7.03919983 C39.88520269 2.11479731 39.88520269 2.11479731 41 1 C42.85287502 0.92773498 44.70833878 0.9161878 46.5625 0.9375 C47.57441406 0.94652344 48.58632813 0.95554688 49.62890625 0.96484375 C50.41136719 0.97644531 51.19382812 0.98804688 52 1 C55.39994861 12.22465304 58.74256059 23.46090873 61.90673828 34.75463867 C63.45086225 40.22597382 65.15426895 45.62288339 67 51 C69.84037375 44.13084686 71.40391962 37.19769024 72.9375 29.9375 C78.98698971 2.01301029 78.98698971 2.01301029 81 0 C82.85287502 -0.07226502 84.70833878 -0.0838122 86.5625 -0.0625 C87.57441406 -0.05347656 88.58632813 -0.04445312 89.62890625 -0.03515625 C90.41136719 -0.02355469 91.19382812 -0.01195312 92 0 C91.26712912 6.28418889 89.76649666 12.29467863 88.19921875 18.41796875 C87.78274834 20.05841911 87.78274834 20.05841911 87.35786438 21.73200989 C86.77044228 24.04129034 86.18114351 26.35009413 85.59008789 28.65844727 C84.69533399 32.15686967 83.80919478 35.65739487 82.92382812 39.15820312 C82.34948059 41.41159151 81.77462682 43.66485094 81.19921875 45.91796875 C80.93864182 46.94963669 80.67806488 47.98130463 80.40959167 49.04423523 C78.58099021 56.14923075 76.38170908 63.06032061 74 70 C69.71 70 65.42 70 61 70 C60.67386719 68.80503906 60.34773437 67.61007812 60.01171875 66.37890625 C59.11192432 63.10012293 58.20890284 59.82227806 57.296875 56.546875 C57.08643555 55.78987305 56.87599609 55.03287109 56.65917969 54.25292969 C55.780411 51.24949358 54.77970499 48.294395 53.75 45.33984375 C52.30433369 40.82966605 51.16063685 36.22990984 49.96484375 31.6484375 C49.02210852 28.08360065 48.02435988 24.54200881 47 21 C45.5112269 23.7951258 44.47920644 26.4782365 43.6328125 29.52734375 C43.26700073 30.82986084 43.26700073 30.82986084 42.89379883 32.15869141 C42.64009521 33.07569824 42.3863916 33.99270508 42.125 34.9375 C41.59088922 36.84013755 41.05573499 38.74248249 40.51953125 40.64453125 C40.25994629 41.56572754 40.00036133 42.48692383 39.73291016 43.43603516 C38.51809894 47.68585109 37.1964941 51.89941882 35.875 56.1171875 C34.68550878 60.03613625 33.63881732 63.98848275 32.61328125 67.953125 C32 70 32 70 31 71 C28.81360547 71.07258946 26.62499611 71.08373783 24.4375 71.0625 C23.23996094 71.05347656 22.04242187 71.04445313 20.80859375 71.03515625 C19.41833984 71.01775391 19.41833984 71.01775391 18 71 C17.68546875 69.71867187 17.3709375 68.43734375 17.046875 67.1171875 C14.2483379 55.73426926 14.2483379 55.73426926 11.125 44.4375 C9.0494865 37.30185027 7.14112059 30.12404204 5.25 22.9375 C4.77264404 21.15073853 4.77264404 21.15073853 4.28564453 19.32788086 C3.99028809 18.19745361 3.69493164 17.06702637 3.390625 15.90234375 C3.12282227 14.88648193 2.85501953 13.87062012 2.57910156 12.82397461 C2.02544819 10.12409746 1.88801356 7.74586986 2 5 C1.34 5 0.68 5 0 5 C0 3.35 0 1.7 0 0 Z " fill="#2C659A" transform="translate(716,218)"/>
<path d="M0 0 C35.96391278 0 35.96391278 0 43.52734375 7.27734375 C47.95322426 12.45456737 49.74799874 17.58202918 49.453125 24.40625 C48.41232455 30.36393532 45.68694382 35.31305618 41.4375 39.5625 C39.19026001 40.88779538 37.50866856 41.4431074 35 42 C35.3403125 42.62003906 35.680625 43.24007812 36.03125 43.87890625 C37.69349386 46.91603798 39.34742214 49.95759724 41 53 C41.52932129 53.97066406 41.52932129 53.97066406 42.06933594 54.9609375 C43.17558252 56.99246157 44.27583902 59.02713504 45.375 61.0625 C45.73271484 61.71742432 46.09042969 62.37234863 46.45898438 63.04711914 C49 67.77189746 49 67.77189746 49 70 C44.85546937 70.60357242 41.12517865 70.82185436 37 70 C33.50496874 66.7925346 32.02378921 62.35370271 30.16064453 58.0703125 C29.55100297 56.69935765 28.92382661 55.33607976 28.28027344 53.98071289 C27.64734831 52.64444892 27.05338424 51.28884897 26.50488281 49.91577148 C25.55613748 47.68807346 25.55613748 47.68807346 23 45 C19.37 44.67 15.74 44.34 12 44 C12 52.91 12 61.82 12 71 C8.04 71 4.08 71 0 71 C0 47.57 0 24.14 0 0 Z " fill="#2F679D" transform="translate(473,218)"/>
<path d="M0 0 C0.66 0 1.32 0 2 0 C3.39325954 1.55240341 4.71380128 3.17029985 6 4.8125 C10.76360982 10.77084155 15.83968139 16.38156265 21 22 C27.394888 29.01911785 33.17910428 36.50546519 39 44 C36.54564352 49.52837722 31.31431223 55.06796567 26 58 C21.5116958 57.33262793 18.97337399 54.52961383 15.8125 51.5 C14.95410522 50.69719604 14.95410522 50.69719604 14.07836914 49.87817383 C9.84671123 45.8955416 5.81234346 41.74946795 1.90234375 37.44921875 C0.15249284 35.81928489 0.15249284 35.81928489 -1.85546875 35.96875 C-4.99867994 37.48023953 -7.57129455 39.61332055 -10.25 41.8125 C-11.49865757 42.81677555 -12.7487131 43.81931489 -14 44.8203125 C-14.65226562 45.34270508 -15.30453125 45.86509766 -15.9765625 46.40332031 C-19.3504775 49.06565189 -22.8005246 51.62431974 -26.25 54.1875 C-30.60406163 57.429086 -34.91578645 60.69552601 -39.125 64.125 C-42.89228724 67.18040854 -46.78670589 70.01921802 -50.75 72.8125 C-58.03938836 77.95467295 -65.03513974 83.42936974 -72 89 C-73.53527344 90.22396484 -73.53527344 90.22396484 -75.1015625 91.47265625 C-77.40404995 93.31140327 -79.70374884 95.15347545 -82 97 C-82.66 96.67 -83.32 96.34 -84 96 C-82.85724609 94.78376953 -82.85724609 94.78376953 -81.69140625 93.54296875 C-75.9518966 87.40009679 -70.42204695 81.18115877 -65.15234375 74.625 C-61.5885926 70.27864651 -57.77984651 66.15783116 -54 62 C-49.29734032 56.72539523 -44.74278101 51.32882608 -40.19238281 45.9230957 C-37.31363193 42.51578566 -34.37913633 39.17324758 -31.375 35.875 C-28.41812715 32.62660447 -25.61386801 29.30880466 -22.875 25.875 C-18.24757397 20.1399454 -13.22517741 14.81215706 -8.14013672 9.48193359 C-7.51896973 8.82918457 -6.89780273 8.17643555 -6.2578125 7.50390625 C-5.7023877 6.92455322 -5.14696289 6.3452002 -4.57470703 5.74829102 C-2.92356904 3.98230208 -2.92356904 3.98230208 -1.42138672 1.78100586 C-0.71780029 0.89940796 -0.71780029 0.89940796 0 0 Z " fill="#6DC9EC" transform="translate(505,45)"/>
<path d="M0 0 C0.99 0.495 0.99 0.495 2 1 C1.32195312 1.85980469 0.64390625 2.71960937 -0.0546875 3.60546875 C-3.04299602 7.39853016 -6.0229768 11.1980771 -9 15 C-9.42667969 15.54414551 -9.85335937 16.08829102 -10.29296875 16.64892578 C-16.11221196 24.08541013 -21.68093415 31.67720809 -27.18530273 39.34887695 C-31.1303015 44.83386789 -35.19560367 50.19791901 -39.34375 55.53125 C-42.62005502 59.77532512 -45.77050608 64.11166259 -48.9375 68.4375 C-54.36277985 75.83627287 -59.92098375 83.10318176 -65.63818359 90.27783203 C-67.11246561 92.14222524 -68.56735737 94.02068631 -70.01953125 95.90234375 C-70.51815674 96.54582764 -71.01678223 97.18931152 -71.53051758 97.85229492 C-72.48550002 99.08556931 -73.43734382 100.32128277 -74.38549805 101.55981445 C-76.46293431 104.23169432 -78.15585185 106.10390123 -81 108 C-92.3589123 95.91073462 -92.3589123 95.91073462 -97.4375 89.5625 C-102.0082145 83.86783932 -106.96376253 78.58237842 -111.95703125 73.26171875 C-115.39948087 69.5895598 -118.73121785 65.82744674 -122 62 C-120.48598117 58.22345865 -118.27273416 56.27192351 -115.125 53.75 C-114.26132812 53.04359375 -113.39765625 52.3371875 -112.5078125 51.609375 C-110 50 -110 50 -106 50 C-104.140625 51.50390625 -104.140625 51.50390625 -102.25 53.5625 C-99.00177955 56.97883537 -95.6688697 60.13125895 -92.08203125 63.1875 C-90.56801579 64.50551721 -89.09053804 65.86586791 -87.63671875 67.25 C-86.84910156 67.9925 -86.06148438 68.735 -85.25 69.5 C-84.53328125 70.1909375 -83.8165625 70.881875 -83.078125 71.59375 C-81.14208812 73.19172496 -81.14208812 73.19172496 -79 72.9765625 C-76.36026109 71.68762749 -74.7638924 70.01204409 -72.75 67.875 C-70.03732798 65.0701498 -67.3427894 62.3461368 -64.375 59.8125 C-60.39804303 56.39802101 -56.57404822 52.83337051 -52.75 49.25 C-47.18015441 44.03205736 -41.58128091 38.85003662 -35.94921875 33.69921875 C-27.92983002 26.35961926 -19.95521457 18.97156768 -12 11.5625 C-11.06546997 10.69371216 -11.06546997 10.69371216 -10.11206055 9.80737305 C-6.67394037 6.6006065 -3.30255369 3.34633755 0 0 Z " fill="#24629B" transform="translate(595,61)"/>
<path d="M0 0 C13 0 13 0 16.75 3.625 C17.87353323 5.3917353 18.95300825 7.18685664 20 9 C21.0555655 10.6282447 22.11148934 12.25627603 23.17529297 13.87915039 C24.33437131 15.65857701 25.47163256 17.45049386 26.60546875 19.24609375 C29.42108512 23.68659662 32.34790042 28.05080274 35.28637695 32.41064453 C38.96037853 37.88256177 42.45678388 43.43208895 46 49 C46.33 32.83 46.66 16.66 47 0 C50.63 0 54.26 0 58 0 C58 22.77 58 45.54 58 69 C45 69 45 69 42.16650391 66.87963867 C41.60882324 65.9022876 41.05114258 64.92493652 40.4765625 63.91796875 C39.50396484 62.30051758 39.50396484 62.30051758 38.51171875 60.65039062 C37.88910156 59.50763672 37.26648438 58.36488281 36.625 57.1875 C35.97917969 56.08728516 35.33335937 54.98707031 34.66796875 53.85351562 C33.37255634 51.64453773 32.09419116 49.42547499 30.83300781 47.19677734 C28.0542427 42.35059323 25.03179955 37.69301433 22 33 C19.03 28.38 16.06 23.76 13 19 C12.67 35.5 12.34 52 12 69 C8.04 69 4.08 69 0 69 C0 46.23 0 23.46 0 0 Z " fill="#326A9B" transform="translate(256,219)"/>
<path d="M0 0 C4.29 0 8.58 0 13 0 C16.13482137 7.73700595 19.21318727 15.48846386 22.125 23.3125 C23.97816402 28.29166068 25.87381814 33.24708011 27.8671875 38.171875 C29.45898975 42.14589166 31.01065646 46.13523815 32.5625 50.125 C32.85568115 50.87765137 33.1488623 51.63030273 33.45092773 52.40576172 C34.02308345 53.87803378 34.59302872 55.35116699 35.16064453 56.82519531 C35.72820035 58.29575588 36.30227978 59.76381267 36.88232422 61.22949219 C38.0740075 64.28942732 39 66.6856925 39 70 C35.29225609 70.28327415 31.69923717 70.43777955 28 70 C25.9375 67.8125 25.9375 67.8125 25 65 C24.4121875 63.7315625 24.4121875 63.7315625 23.8125 62.4375 C23 60 23 60 23 56 C12.44 56 1.88 56 -9 56 C-9.99 59.3 -10.98 62.6 -12 66 C-12.66 67.32 -13.32 68.64 -14 70 C-17.96 70 -21.92 70 -26 70 C-25.23808127 66.19040634 -24.39202545 63.09325702 -23.0390625 59.5078125 C-22.64976562 58.47269531 -22.26046875 57.43757813 -21.859375 56.37109375 C-21.45203125 55.29988281 -21.0446875 54.22867188 -20.625 53.125 C-20.22539062 52.06152344 -19.82578125 50.99804688 -19.4140625 49.90234375 C-16.17720558 41.33106144 -16.17720558 41.33106144 -14.39453125 37.2265625 C-12.83016302 33.60704384 -11.43375674 29.9458634 -10.0625 26.25 C-9.80235107 25.55334229 -9.54220215 24.85668457 -9.27416992 24.13891602 C-7.76183829 20.08063135 -6.27807915 16.01293741 -4.8125 11.9375 C-3.34985945 7.88616928 -1.74920802 3.93571804 0 0 Z " fill="#6EC5EB" transform="translate(439,334)"/>
<path d="M0 0 C14.52 0 29.04 0 44 0 C44 3.63 44 7.26 44 11 C33.11 11 22.22 11 11 11 C11 17.27 11 23.54 11 30 C20.9 30 30.8 30 41 30 C41 33.3 41 36.6 41 40 C31.43 40 21.86 40 12 40 C12 46.27 12 52.54 12 59 C22.89 59 33.78 59 45 59 C45 62.96 45 66.92 45 71 C30.15 71 15.3 71 0 71 C0 47.57 0 24.14 0 0 Z " fill="#70C7EB" transform="translate(572,334)"/>
<path d="M0 0 C7.074375 -0.020625 14.14875 -0.04125 21.4375 -0.0625 C24.79119751 -0.07615601 24.79119751 -0.07615601 28.21264648 -0.09008789 C29.97379496 -0.09300696 31.73494411 -0.09555554 33.49609375 -0.09765625 C34.41942505 -0.10277222 35.34275635 -0.10788818 36.29406738 -0.11315918 C37.16696411 -0.11328003 38.03986084 -0.11340088 38.93920898 -0.11352539 C40.08171364 -0.11685631 40.08171364 -0.11685631 41.24729919 -0.12025452 C43 0 43 0 44 1 C44 4.3 44 7.6 44 11 C33.11 11 22.22 11 11 11 C11 17.27 11 23.54 11 30 C20.9 30 30.8 30 41 30 C41 33.3 41 36.6 41 40 C31.1 40 21.2 40 11 40 C11 46.6 11 53.2 11 60 C21.89 60 32.78 60 44 60 C44 63.63 44 67.26 44 71 C29.48 71 14.96 71 0 71 C0 47.57 0 24.14 0 0 Z " fill="#2B669D" transform="translate(656,218)"/>
<path d="M0 0 C14.19 0 28.38 0 43 0 C43 3.3 43 6.6 43 10 C32.44 10 21.88 10 11 10 C11 16.27 11 22.54 11 29 C20.9 29 30.8 29 41 29 C41 32.3 41 35.6 41 39 C31.1 39 21.2 39 11 39 C11 45.6 11 52.2 11 59 C21.89 59 32.78 59 44 59 C44 62.3 44 65.6 44 69 C29.48 69 14.96 69 0 69 C0 46.23 0 23.46 0 0 Z " fill="#286197" transform="translate(406,219)"/>
<path d="M0 0 C1.66796875 1.28515625 1.66796875 1.28515625 3.85546875 3.66015625 C3.85546875 6.66015625 3.85546875 6.66015625 1.60546875 9.34765625 C-1.14453125 11.66015625 -1.14453125 11.66015625 -5.14453125 11.66015625 C-7.15789655 10.34709192 -9.15684731 9.01178133 -11.14453125 7.66015625 C-16.9843031 4.9439833 -23.99533423 4.59765159 -30.234375 6.1953125 C-36.72809884 8.79564393 -40.99637144 12.76895211 -44.19140625 18.90625 C-46.99613892 27.01008825 -45.93762017 35.94168123 -42.3359375 43.609375 C-39.08794718 49.200178 -34.2633391 52.75877464 -28.14453125 54.66015625 C-20.60509651 55.78327205 -14.97469805 54.75477054 -8.3984375 50.94921875 C-6.04596106 49.60378162 -3.67706377 48.61599745 -1.14453125 47.66015625 C0.83546875 49.97015625 2.81546875 52.28015625 4.85546875 54.66015625 C0.23046875 59.53515625 0.23046875 59.53515625 -3.14453125 60.66015625 C-3.63953125 62.14515625 -3.63953125 62.14515625 -4.14453125 63.66015625 C-15.01722538 67.75638055 -26.84330648 68.35990662 -37.609375 63.9140625 C-45.31918257 60.10073703 -50.00590664 55.16600503 -54.14453125 47.66015625 C-54.76714844 46.55220703 -54.76714844 46.55220703 -55.40234375 45.421875 C-59.34308535 37.22347901 -59.50519023 27.46971146 -57.44921875 18.69140625 C-53.4595011 7.82864559 -46.26117079 1.30394951 -36.42578125 -4.2890625 C-24.78904509 -9.64913447 -10.44417086 -6.52522879 0 0 Z " fill="#6BC5EB" transform="translate(547.14453125,339.33984375)"/>
<path d="M0 0 C3.96 0 7.92 0 12 0 C11.43690781 5.74506225 9.81816342 10.49461377 7.625 15.8125 C4.73251818 22.99938231 4.73251818 22.99938231 2.375 30.375 C1.07763415 34.99047728 -0.72588766 39.31223966 -2.60546875 43.71875 C-6.41634528 52.6855183 -10.06462005 61.70463016 -13 71 C-16.96 71 -20.92 71 -25 71 C-27.65821442 64.45670298 -30.18186574 57.87181081 -32.64038086 51.25146484 C-34.41045426 46.50866848 -36.27628141 41.81242061 -38.1875 37.125 C-40.1831765 32.21432614 -41.91344598 27.30111218 -43.35546875 22.19921875 C-44.5914098 17.98203807 -46.24359937 13.91690571 -47.85546875 9.83203125 C-50 4.30457746 -50 4.30457746 -50 1 C-46.04 1 -42.08 1 -38 1 C-37.68772461 1.9472998 -37.37544922 2.89459961 -37.05371094 3.87060547 C-35.87897604 7.43138867 -34.70008398 10.99078454 -33.52001953 14.54980469 C-33.01272388 16.08166385 -32.50651189 17.61388238 -32.00146484 19.14648438 C-28.19533702 30.69919638 -28.19533702 30.69919638 -23.79492188 42.03613281 C-22.03323257 46.38841438 -21 50.25684331 -21 55 C-17.16890956 52.44593971 -16.61459628 49.71965769 -15.29296875 45.52734375 C-15.04509109 44.77143448 -14.79721344 44.01552521 -14.54182434 43.23670959 C-13.74709884 40.80674797 -12.96682535 38.37243948 -12.1875 35.9375 C-11.16370881 32.77878878 -10.1344082 29.62188099 -9.10546875 26.46484375 C-8.85304413 25.68652191 -8.60061951 24.90820007 -8.34054565 24.10629272 C-5.70683027 16.01883873 -2.87128217 8.00565965 0 0 Z " fill="#29639C" transform="translate(585,218)"/>
<path d="M0 0 C17.16 0 34.32 0 52 0 C52 3.3 52 6.6 52 10 C45.07 10 38.14 10 31 10 C31 29.47 31 48.94 31 69 C27.37 69 23.74 69 20 69 C20 49.53 20 30.06 20 10 C13.4 10 6.8 10 0 10 C0 6.7 0 3.4 0 0 Z " fill="#286197" transform="translate(334,219)"/>
<path d="M0 0 C3.63 0 7.26 0 11 0 C11 22.77 11 45.54 11 69 C-2 69 -2 69 -5.2734375 66.078125 C-6.390625 64.21875 -6.390625 64.21875 -7.375 62.25 C-7.75398438 61.61578125 -8.13296875 60.9815625 -8.5234375 60.328125 C-9.99432053 57.73244907 -11.04438285 55.71012558 -10.85546875 52.6875 C-9.65631706 50.32205009 -7.95348477 48.76443785 -6 47 C-4.35 47.66 -2.7 48.32 -1 49 C-0.67 32.83 -0.34 16.66 0 0 Z " fill="#286196" transform="translate(303,219)"/>
<path d="M0 0 C3.96 0 7.92 0 12 0 C12 22.77 12 45.54 12 69 C8.04 69 4.08 69 0 69 C0 46.23 0 23.46 0 0 Z " fill="#33689F" transform="translate(616,219)"/>
<path d="M0 0 C3.63 0 7.26 0 11 0 C11 22.77 11 45.54 11 69 C7.37 69 3.74 69 0 69 C0 46.23 0 23.46 0 0 Z " fill="#2D6599" transform="translate(217,219)"/>
<path d="M0 0 C2.68125 -0.0825 5.3625 -0.165 8.125 -0.25 C8.95789551 -0.28641602 9.79079102 -0.32283203 10.64892578 -0.36035156 C15.89753078 -0.43799735 18.84890043 0.50842092 23 4 C24.96881005 7.93762009 24.45834498 12.70766117 24 17 C21.90219061 20.61691275 20.95125774 21.68291409 17 23 C15.66474283 23.07973476 14.32587917 23.10771338 12.98828125 23.09765625 C11.96408081 23.09390991 11.96408081 23.09390991 10.91918945 23.09008789 C10.05898193 23.08098389 9.19877441 23.07187988 8.3125 23.0625 C4.1978125 23.0315625 4.1978125 23.0315625 0 23 C0 15.41 0 7.82 0 0 Z " fill="#F9FAFB" transform="translate(485,229)"/>
<path d="M0 0 C2.08915012 2.08915012 2.50667056 3.07491642 3.3671875 5.81640625 C3.61130371 6.57687256 3.85541992 7.33733887 4.10693359 8.12084961 C4.36039551 8.92659424 4.61385742 9.73233887 4.875 10.5625 C6.50576413 15.6284803 8.1267092 20.60367479 10.375 25.4375 C12 29 12 29 12 32 C4.41 32 -3.18 32 -11 32 C-9.92698989 27.70795958 -8.586601 23.56885907 -7.1875 19.375 C-6.92050293 18.57336426 -6.65350586 17.77172852 -6.37841797 16.94580078 C-4.45039987 11.21275838 -2.37676003 5.56441465 0 0 Z " fill="#F1F8F8" transform="translate(445,347)"/>
<path d="M0 0 C0.66 0.33 1.32 0.66 2 1 C1.32195313 1.85980469 0.64390625 2.71960937 -0.0546875 3.60546875 C-2.54119245 6.76146933 -5.02184637 9.92201678 -7.49951172 13.08496094 C-8.43511099 14.279045 -9.37149774 15.47251298 -10.30908203 16.66503906 C-17.54374148 25.87907368 -24.30292215 35.39164947 -31 45 C-33 43.625 -33 43.625 -35 42 C-35 41.34 -35 40.68 -35 40 C-36.98 40 -38.96 40 -41 40 C-36.76893726 34.89264297 -32.31251699 30.30288153 -27.4375 25.8125 C-26.74293701 25.16756592 -26.04837402 24.52263184 -25.33276367 23.8581543 C-23.91254401 22.54045649 -22.4907589 21.22444385 -21.06738281 19.91015625 C-19.12094832 18.11175008 -17.18056364 16.30708346 -15.2421875 14.5 C-14.09918949 13.43725133 -12.95597274 12.37473786 -11.8125 11.3125 C-11.29679443 10.83208252 -10.78108887 10.35166504 -10.24975586 9.85668945 C-7.95999667 7.73989904 -5.64947556 5.72378479 -3.19921875 3.79296875 C-0.92264549 2.1874962 -0.92264549 2.1874962 0 0 Z " fill="#29679D" transform="translate(595,61)"/>
<path d="M0 0 C0.66 0 1.32 0 2 0 C6.50193943 5.85252126 9.9431295 12.57149909 13.4375 19.0625 C13.79150879 19.71742432 14.14551758 20.37234863 14.51025391 21.04711914 C17 25.75223366 17 25.75223366 17 28 C12.8514792 28.60415351 9.12198772 28.86640506 5 28 C0.81770841 23.91116744 -1.18680889 18.73106113 -2 13 C-1.5625 10.6875 -1.5625 10.6875 -1 9 C-1.66 8.67 -2.32 8.34 -3 8 C-2.5359375 7.13375 -2.5359375 7.13375 -2.0625 6.25 C-1.07416636 4.15705816 -0.4831387 2.25464725 0 0 Z " fill="#27629B" transform="translate(505,260)"/>
<path d="M0 0 C3.96 0 7.92 0 12 0 C11.43375164 5.94162007 9.6793942 10.92821148 7.4375 16.4375 C7.10814453 17.26443359 6.77878906 18.09136719 6.43945312 18.94335938 C5.63314164 20.96498093 4.81751877 22.98288449 4 25 C3.67 24.34 3.34 23.68 3 23 C0.67843403 22.59270772 -1.6568787 22.25561323 -4 22 C-4.66 22.99 -5.32 23.98 -6 25 C-6.66 25 -7.32 25 -8 25 C-5.85406445 16.45115106 -3.0505873 8.25949525 0 0 Z " fill="#33699F" transform="translate(585,218)"/>
<path d="M0 0 C1.32 0.33 2.64 0.66 4 1 C3.96970703 1.95140869 3.93941406 2.90281738 3.90820312 3.88305664 C3.7940114 7.48943015 3.68296181 11.09589531 3.57275391 14.70239258 C3.52507837 16.24896777 3.47660495 17.79551863 3.42724609 19.34204102 C3.1016224 29.56596034 2.93216143 39.77050901 3 50 C1.515 50.495 1.515 50.495 0 51 C0 34.17 0 17.34 0 0 Z " fill="#5BBFE6" transform="translate(573,335)"/>
<path d="M0 0 C0.66 0.33 1.32 0.66 2 1 C1.31035156 1.87140625 0.62070312 2.7428125 -0.08984375 3.640625 C-6.17357262 11.34559422 -12.15120582 19.11495895 -18 27 C-19.65 26.67 -21.3 26.34 -23 26 C-22.49654517 21.82078353 -21.46048435 19.99996194 -18.359375 17.1875 C-17.61816406 16.50429687 -16.87695312 15.82109375 -16.11328125 15.1171875 C-15.33339844 14.41851562 -14.55351563 13.71984375 -13.75 13 C-12.22344212 11.60473125 -10.69738812 10.20891097 -9.171875 8.8125 C-8.45193359 8.15894531 -7.73199219 7.50539063 -6.99023438 6.83203125 C-4.58714629 4.61996391 -2.28168174 2.3364421 0 0 Z " fill="#2A5D91" transform="translate(595,61)"/>
<path d="M0 0 C2.88208966 0.64046437 4.56717555 1.34730626 6.22265625 3.84375 C9 9.33870968 9 9.33870968 9 12 C7.04233719 12.08082094 5.08373272 12.13910778 3.125 12.1875 C2.03445313 12.22230469 0.94390625 12.25710938 -0.1796875 12.29296875 C-1.11039062 12.19628906 -2.04109375 12.09960938 -3 12 C-5 9 -5 9 -4.625 6.3125 C-4.41875 5.549375 -4.2125 4.78625 -4 4 C-3.34 4 -2.68 4 -2 4 C-1.34 2.68 -0.68 1.36 0 0 Z " fill="#20598F" transform="translate(513,276)"/>
<path d="M0 0 C3.96 0 7.92 0 12 0 C12.33 1.32 12.66 2.64 13 4 C12 5 12 5 9.49609375 5.09765625 C7.98208984 5.08025391 7.98208984 5.08025391 6.4375 5.0625 C5.42558594 5.05347656 4.41367187 5.04445312 3.37109375 5.03515625 C2.58863281 5.02355469 1.80617188 5.01195312 1 5 C0.67 6.32 0.34 7.64 0 9 C0 6.03 0 3.06 0 0 Z " fill="#2A6097" transform="translate(257,219)"/>
<path d="M0 0 C0.66 0.33 1.32 0.66 2 1 C-2.95 7.435 -2.95 7.435 -8 14 C-8.99 13.01 -9.98 12.02 -11 11 C-10.28972656 10.37351562 -9.57945312 9.74703125 -8.84765625 9.1015625 C-7.46900391 7.87566406 -7.46900391 7.87566406 -6.0625 6.625 C-5.14597656 5.81289062 -4.22945312 5.00078125 -3.28515625 4.1640625 C-0.96398605 2.21290653 -0.96398605 2.21290653 0 0 Z " fill="#4371A3" transform="translate(595,61)"/>
<path d="M0 0 C0.8723412 2.99480917 1.10829766 5.63575911 1.0625 8.75 C1.05347656 9.54921875 1.04445313 10.3484375 1.03515625 11.171875 C1.01775391 12.07679688 1.01775391 12.07679688 1 13 C-0.98 13.99 -0.98 13.99 -3 15 C-2.69052329 13.06201479 -2.37731166 11.12462574 -2.0625 9.1875 C-1.88847656 8.10855469 -1.71445312 7.02960938 -1.53515625 5.91796875 C-1 3 -1 3 0 0 Z " fill="#3D72A2" transform="translate(796,219)"/>
<path d="M0 0 C3.63 0 7.26 0 11 0 C10.67 2.31 10.34 4.62 10 7 C9.67 7 9.34 7 9 7 C9 5.35 9 3.7 9 2 C7.329375 2.061875 7.329375 2.061875 5.625 2.125 C2 2 2 2 0 0 Z " fill="#5C88B1" transform="translate(797,218)"/>
<path d="M0 0 C0.66 0.33 1.32 0.66 2 1 C2 3.31 2 5.62 2 8 C1.01 8.495 1.01 8.495 0 9 C-0.33 8.01 -0.66 7.02 -1 6 C-1.66 5.67 -2.32 5.34 -3 5 C-3 4.01 -3 3.02 -3 2 C-2.34 2 -1.68 2 -1 2 C-0.67 1.34 -0.34 0.68 0 0 Z " fill="#225C92" transform="translate(795,255)"/>
<path d="M0 0 C2.64 0.33 5.28 0.66 8 1 C8 1.66 8 2.32 8 3 C6.865625 3.12375 5.73125 3.2475 4.5625 3.375 C2.7990625 3.684375 2.7990625 3.684375 1 4 C0.67 4.66 0.34 5.32 0 6 C0 4.02 0 2.04 0 0 Z " fill="#205890" transform="translate(407,220)"/>
<path d="M0 0 C0.99 0.33 1.98 0.66 3 1 C1.515 3.475 1.515 3.475 0 6 C-1.32 5.67 -2.64 5.34 -4 5 C-2.25 1.125 -2.25 1.125 0 0 Z " fill="#2D6E9F" transform="translate(477,118)"/>
<path d="M0 0 C0.77321882 2.98241547 1.41196203 5.97580475 2 9 C1.01 9 0.02 9 -1 9 C-1.33 9.66 -1.66 10.32 -2 11 C-1.125 3.375 -1.125 3.375 0 0 Z " fill="#487CA4" transform="translate(749,244)"/>
<path d="M0 0 C0.66 0.99 1.32 1.98 2 3 C-0.31 4.98 -2.62 6.96 -5 9 C-5.66 8.67 -6.32 8.34 -7 8 C-4.69 5.36 -2.38 2.72 0 0 Z " fill="#97D8ED" transform="translate(428,133)"/>
<path d="M0 0 C0.33 0 0.66 0 1 0 C1.29296875 6.0546875 1.29296875 6.0546875 1 8 C0.01 8.66 -0.98 9.32 -2 10 C-2.17942163 6.05272412 -2.09350689 3.4019487 0 0 Z " fill="#225E94" transform="translate(755,228)"/>
<path d="M0 0 C0 3 0 3 -1.53125 4.60546875 C-2.1809375 5.12753906 -2.830625 5.64960937 -3.5 6.1875 C-4.1496875 6.71730469 -4.799375 7.24710937 -5.46875 7.79296875 C-5.9740625 8.19128906 -6.479375 8.58960937 -7 9 C-7 6 -7 6 -5.46875 4.39453125 C-4.49421875 3.61142578 -4.49421875 3.61142578 -3.5 2.8125 C-2.8503125 2.28269531 -2.200625 1.75289063 -1.53125 1.20703125 C-1.0259375 0.80871094 -0.520625 0.41039063 0 0 Z " fill="#3873A3" transform="translate(569,86)"/>
<path d="M0 0 C1 2 1 2 0.44140625 4.1640625 C0.15136719 4.97617188 -0.13867188 5.78828125 -0.4375 6.625 C-0.72496094 7.44226563 -1.01242187 8.25953125 -1.30859375 9.1015625 C-1.53675781 9.72804687 -1.76492188 10.35453125 -2 11 C-2.33 11 -2.66 11 -3 11 C-3.33 8.69 -3.66 6.38 -4 4 C-3.01 4 -2.02 4 -1 4 C-0.67 2.68 -0.34 1.36 0 0 Z " fill="#4D88AA" transform="translate(759,245)"/>
<path d="M0 0 C0.99 0.33 1.98 0.66 3 1 C3 3.31 3 5.62 3 8 C1.68 7.67 0.36 7.34 -1 7 C-0.67 6.67 -0.34 6.34 0 6 C0.04080783 4.00041636 0.04254356 1.99954746 0 0 Z " fill="#195893" transform="translate(744,280)"/>
<path d="M0 0 C1.98 0 3.96 0 6 0 C5.67 0.99 5.34 1.98 5 3 C3.02 3 1.04 3 -1 3 C-0.67 2.01 -0.34 1.02 0 0 Z " fill="#1E548E" transform="translate(264,221)"/>
<path d="M0 0 C0.66 0.33 1.32 0.66 2 1 C-0.97 4.96 -0.97 4.96 -4 9 C-4.99 8.34 -5.98 7.68 -7 7 C-5.47005208 5.76302083 -3.94010417 4.52604167 -2.41015625 3.2890625 C-0.86733563 2.0333609 -0.86733563 2.0333609 0 0 Z " fill="#86A3C0" transform="translate(595,61)"/>
</svg>
